<svg width="86" height="86" viewBox="0 0 86 86" fill="none" xmlns="http://www.w3.org/2000/svg">
<path d="M52.7463 1.35492C55.5761 1.39424 58.2759 1.93112 60.797 3.21348C63.0197 4.35135 64.8321 5.94232 66.0691 8.13515C66.8731 9.58274 67.4004 11.1674 67.6242 12.808C68.0841 15.9575 67.6191 19.0044 66.5804 21.9837C65.97 23.7311 65.1253 25.37 64.2106 26.9798C62.3469 30.2566 59.9523 33.0966 57.167 35.6143C53.5936 38.8475 49.6751 41.6775 45.4822 44.053C43.8579 44.9703 42.1738 45.7406 40.3622 46.2116C39.2525 46.5114 38.1066 46.6564 36.9571 46.6425C35.444 46.6117 34.2599 45.9227 33.3392 44.7617C32.489 43.7198 32.0509 42.4019 32.1081 41.0583C32.1182 40.6845 32.1721 40.3132 32.2689 39.952C32.8169 38.0054 33.5615 36.1409 34.6746 34.4405C35.5252 33.1419 36.5391 31.9886 37.8651 31.1637C39.3398 30.2455 40.9427 29.8531 42.6764 30.2318C43.2185 30.3589 43.7286 30.596 44.1751 30.9286C45.3164 31.7441 45.2565 33.0239 44.7085 33.8412C44.2391 34.5514 43.7143 35.2235 43.1389 35.8511C42.1644 36.9009 41.1291 37.8934 40.1186 38.9091C39.2244 39.8076 38.384 40.7505 37.7026 41.8251C37.3495 42.3825 37.0238 42.951 36.9264 43.6204C36.8033 44.4599 37.2393 45.0319 38.0865 45.1105C38.5248 45.1463 38.966 45.102 39.3885 44.9797C40.6905 44.6198 41.8993 44.0393 43.0868 43.4135C44.918 42.4449 46.6081 41.2609 48.2555 40.0119C50.2526 38.4979 52.1941 36.9189 53.9834 35.1629C56.0215 33.165 57.8381 30.9935 59.2282 28.4878C60.2438 26.6583 60.9919 24.7262 61.3244 22.654C61.6185 20.8287 61.4544 19.0505 60.6089 17.3749C60.2017 16.5467 59.5648 15.8532 58.7743 15.377C58.4092 15.1573 58.0066 15.0071 57.5868 14.9342C56.0591 14.6632 54.581 14.8855 53.1285 15.3702C51.6145 15.8763 50.2098 16.6149 48.8446 17.422C45.8815 19.1796 42.915 20.9365 40.0912 22.9156C38.6755 23.9072 37.3034 24.9622 35.9159 25.9932C34.6626 26.925 33.4179 27.868 32.0483 28.6297C30.9369 29.2626 29.734 29.7191 28.4825 29.983C26.9317 30.2976 25.5023 30.0053 24.1892 29.1623C22.8265 28.2878 21.8724 27.0875 21.4535 25.4991C21.1868 24.4963 21.2919 23.502 21.5219 22.512C21.8579 21.0587 22.4956 19.7422 23.2907 18.494C25.257 15.4112 27.7293 12.7961 30.6044 10.5605C34.8652 7.24776 39.5535 4.69673 44.6248 2.851C47.2284 1.89861 49.9742 1.39281 52.7463 1.35492V1.35492Z" fill="#E20010"/>
<path d="M17.6919 71.8364C17.6774 70.8687 17.5671 69.9984 17.008 69.2435C16.7358 68.8787 16.3588 68.6056 15.9274 68.4604C14.816 68.062 13.6842 68.109 12.5805 68.4501C11.6957 68.7237 10.8425 69.0964 9.97644 69.429C9.80546 69.4923 9.64987 69.5735 9.44299 69.6658C9.0352 68.6545 8.63425 67.673 8.21449 66.6471C8.82233 66.359 9.39511 66.065 9.98585 65.8128C11.3469 65.2306 12.7583 64.8313 14.2424 64.7416C15.7265 64.6518 17.191 64.7305 18.5417 65.4503C20.0694 66.259 21.1722 67.4268 21.6339 69.1264C21.7005 69.3488 21.7404 69.5784 21.7527 69.8103C21.8117 72.0168 21.8912 74.2233 21.9006 76.4298C21.9066 77.9378 21.8074 79.4467 21.763 80.9556C21.755 81.1625 21.6689 81.3587 21.5219 81.5045C20.4661 82.6672 19.1743 83.4708 17.7107 84.0102C16.1413 84.5829 14.4699 84.8231 12.8028 84.7155C11.2639 84.63 9.93541 84 8.81207 82.9544C7.68873 81.9089 6.90393 80.6462 6.68507 79.0988C6.38586 76.9795 6.99711 75.1406 8.52055 73.6274C9.50026 72.6545 10.7074 72.1519 12.0675 71.974C13.5722 71.7783 15.0819 71.8304 16.5917 71.8347L17.6919 71.8364ZM17.4945 75.2817C17.4058 75.2642 17.3161 75.2519 17.226 75.2449C16.7131 75.2346 16.1941 75.2167 15.6786 75.2244C15.0605 75.2338 14.4399 75.2364 13.8252 75.2945C13.19 75.3552 12.5736 75.5407 12.0812 75.9647C11.2639 76.6692 11.0211 77.589 11.2203 78.626C11.4682 79.9084 12.1847 80.8043 13.4619 81.1856C14.1204 81.3826 14.8178 81.412 15.4906 81.2711C16.1159 81.1566 16.6992 80.8768 17.1799 80.4607C17.2612 80.3976 17.3281 80.3177 17.376 80.2266C17.424 80.1355 17.4518 80.0351 17.4577 79.9323C17.4774 79.4818 17.5355 79.0321 17.5389 78.5816C17.5458 77.5497 17.5304 76.5179 17.5218 75.486C17.5167 75.4174 17.5076 75.3492 17.4945 75.2817V75.2817Z" fill="#E20010"/>
<path d="M69.1116 75.1963C65.4441 75.1963 61.8449 75.1177 58.1953 75.2134C58.2141 75.4699 58.2253 75.7127 58.2483 75.9495C58.3424 76.9181 58.551 77.8593 58.9605 78.7476C59.2789 79.4721 59.7731 80.1056 60.3984 80.5907C61.3901 81.3439 62.522 81.467 63.7095 81.314C64.6909 81.1875 65.6048 80.8284 66.5161 80.4668C66.9341 80.3018 67.3488 80.1248 67.7985 79.941C68.2259 80.8352 68.6448 81.7141 69.0808 82.6186C69.0004 82.6767 68.9252 82.7417 68.8414 82.7896C67.0632 83.8445 65.1534 84.5242 63.0905 84.7037C61.2097 84.867 59.4144 84.5584 57.7901 83.5179C56.6839 82.8092 55.9093 81.8081 55.2613 80.6882C54.4632 79.2949 53.98 77.7436 53.8456 76.1435C53.5743 73.2261 54.1938 70.5097 55.7042 67.9946C56.7574 66.2463 58.3296 65.2965 60.2975 64.9691C62.1065 64.651 63.9698 64.9611 65.5783 65.848C66.4793 66.3361 67.1068 67.1047 67.6241 67.9664C68.308 69.1026 68.6679 70.355 68.8406 71.6527C68.9808 72.6991 69.0252 73.7584 69.109 74.8159C69.1193 74.9245 69.1116 75.0373 69.1116 75.1963ZM64.6661 71.875C64.4532 70.8996 64.3079 69.9028 63.6693 69.0761C63.349 68.6652 62.8992 68.3748 62.3929 68.2519C61.0464 67.8955 59.6931 68.5161 59.1144 69.7908C58.9075 70.2447 58.7861 70.738 58.6356 71.2159C58.5681 71.4322 58.5245 71.657 58.4706 71.875C58.8322 71.9708 64.2959 71.975 64.6678 71.8776L64.6661 71.875Z" fill="#E20010"/>
<path d="M45.0522 60.2964L49.4284 59.6193V64.9941C50.3996 65.0522 51.3246 64.989 52.2547 65.089V68.4C51.3143 68.4154 50.3936 68.3872 49.4335 68.4453C49.4335 68.6317 49.4335 68.7711 49.4335 68.9104C49.4256 72.0975 49.4187 75.2848 49.413 78.4725C49.413 78.9743 49.4532 79.477 49.4985 79.9771C49.5703 80.7465 49.9969 81.2347 50.7424 81.4219C51.1536 81.5262 51.5759 81.5852 51.9931 81.6647L52.412 81.7502V84.5602C52.3649 84.5835 52.3149 84.6002 52.2633 84.6098C51.0211 84.6654 49.7841 84.6329 48.5829 84.2679C47.41 83.9139 46.432 83.2728 45.7686 82.2161C45.3916 81.6177 45.2001 80.9449 45.1171 80.2498C45.067 79.8145 45.0425 79.3766 45.0436 78.9384C45.0436 72.8857 45.047 66.8336 45.0539 60.782L45.0522 60.2964Z" fill="#E20010"/>
<path d="M71.5174 60.2997L75.7492 59.5662V60.1501C75.7492 65.6471 75.7515 71.1441 75.756 76.6411C75.756 77.6474 75.7646 78.6536 75.7723 79.6606C75.7791 80.654 76.1416 81.1601 77.0906 81.4559C77.413 81.5451 77.7404 81.6153 78.0711 81.6662C78.2729 81.7039 78.4772 81.7218 78.7226 81.7517V84.6225C78.6998 84.6414 78.6728 84.6546 78.6439 84.661C77.4419 84.7097 76.2451 84.69 75.0764 84.3481C74.3683 84.1442 73.7089 83.7987 73.1383 83.3324C72.0757 82.463 71.6431 81.2978 71.532 79.9838C71.4995 79.5991 71.5038 79.2101 71.5046 78.8237C71.5046 72.8103 71.5089 66.7975 71.5174 60.7853V60.2997Z" fill="#E20010"/>
<path d="M36.5442 84.3688H32.2697C32.2646 84.1901 32.256 84.0268 32.2552 83.8652C32.2506 81.2971 32.2469 78.729 32.2441 76.1608C32.2389 74.1091 32.2261 72.0573 32.227 70.0055C32.2283 69.6335 32.2569 69.262 32.3125 68.8942C32.3757 68.4744 32.5954 68.1248 32.9006 67.8298C34.5797 66.1952 36.5912 65.2155 38.8849 64.7932C40.3224 64.5296 41.7956 64.5276 43.2338 64.7872C43.3099 64.8009 43.386 64.818 43.4604 64.8368C43.4971 64.8462 43.5322 64.8642 43.6032 64.8915C43.1176 66.126 42.526 67.3058 41.9686 68.4718C41.3026 68.4718 40.6717 68.4522 40.0425 68.4761C38.9559 68.5122 37.8892 68.7779 36.9127 69.2558C36.6357 69.3917 36.5323 69.561 36.5331 69.8799C36.5451 74.5533 36.5479 79.2268 36.5417 83.9003L36.5442 84.3688Z" fill="#E20010"/>
<path d="M29.1166 65.1752C29.1619 71.5801 29.1124 77.9474 29.1534 84.354H24.9704C24.9601 84.1993 24.9396 84.0377 24.9396 83.8762C24.9396 79.8496 24.9396 75.8224 24.9396 71.7947C24.9396 69.9489 24.955 68.1032 24.9627 66.2575C24.9627 66.1173 24.9627 65.9771 24.9627 65.801L29.1166 65.1752Z" fill="#E20010"/>
<path d="M26.8513 63.2902C24.8089 63.2851 23.53 61.2522 24.3772 59.3329C24.8979 58.1557 25.7921 57.7086 27.0821 57.7163C28.8107 57.7308 30.0922 59.45 29.6802 61.1299C29.351 62.4721 28.2739 63.2937 26.8513 63.2902Z" fill="#E20010"/>
</svg>
