<svg width="86" height="86" viewBox="0 0 86 86" fill="none" xmlns="http://www.w3.org/2000/svg">
<g clip-path="url(#clip0_95_1286)">
<path fill-rule="evenodd" clip-rule="evenodd" d="M27.264 77.8198C28.3956 77.8198 29.2226 78.0595 29.7449 78.5389C30.2673 79.0183 30.5287 79.7638 30.5293 80.7755V86.198H28.8318V81.0049C28.8318 79.8615 28.1907 79.2897 26.9084 79.2897C26.3545 79.2851 25.8108 79.4381 25.3406 79.7309C25.4219 80.073 25.4602 80.4239 25.4544 80.7755V86.198H23.7569V81.0049C23.7569 79.8615 23.1158 79.2897 21.8335 79.2897C21.2484 79.2903 20.6682 79.3954 20.1201 79.6003V86.198H18.4235V78.6695C18.9852 78.3902 19.5798 78.1827 20.1933 78.0519C20.8478 77.8993 21.5171 77.82 22.1891 77.8154C23.2478 77.8154 24.0345 78.0213 24.5492 78.433C25.3968 78.0281 26.3246 77.8186 27.264 77.8198V77.8198ZM36.3453 86.4468C35.0513 86.4468 34.0787 86.0765 33.4276 85.336C32.7765 84.5955 32.4506 83.5176 32.45 82.1025C32.45 79.2386 33.744 77.8069 36.3321 77.8075C37.6361 77.8075 38.6166 78.1748 39.2736 78.9095C39.9306 79.6441 40.2594 80.7084 40.26 82.1025C40.26 83.4953 39.9206 84.5675 39.2418 85.3193C38.5631 86.071 37.5976 86.4468 36.3453 86.4468ZM36.3286 84.9928C37.8161 84.9928 38.5596 84.0294 38.559 82.1025C38.559 81.1443 38.3825 80.4285 38.0296 79.955C37.6767 79.4815 37.1108 79.2444 36.3321 79.2439C35.5457 79.2439 34.9828 79.4862 34.6434 79.9709C34.304 80.4555 34.1343 81.1661 34.1343 82.1025C34.1343 83.0383 34.3093 83.7541 34.6593 84.2499C35.0092 84.7458 35.5657 84.9922 36.3286 84.9893V84.9928ZM45.9269 77.8234C47.1339 77.8234 48.0497 78.1881 48.6743 78.9174C49.299 79.6468 49.6122 80.6799 49.614 82.0169C49.614 83.6285 49.2396 84.769 48.4908 85.4384C47.7421 86.1077 46.7904 86.4439 45.6358 86.4468C43.3189 86.4468 42.1604 85.8263 42.1604 84.5852V74.7169H43.8421V78.3298C44.1802 78.1682 44.5353 78.0448 44.9008 77.9619C45.2364 77.8758 45.5806 77.8281 45.9269 77.8198V77.8234ZM45.5061 84.9602C46.3883 84.9602 47.0059 84.7043 47.3589 84.1926C47.7118 83.6809 47.8882 82.9786 47.8882 82.0857C47.8882 81.1716 47.7024 80.4749 47.3306 79.9956C46.9589 79.5162 46.4069 79.2768 45.6746 79.2774C45.3555 79.2795 45.038 79.3204 44.7288 79.3991C44.4193 79.4739 44.1222 79.5927 43.8465 79.752V84.1635C43.8435 84.6928 44.3967 84.9572 45.5061 84.9566V84.9602ZM51.5321 75.1448H53.3425V76.6967H51.5321V75.1448ZM51.5806 78.0519H53.2781L53.294 86.2015H51.5806V78.0519ZM55.6832 86.2015V74.8968H57.3648V86.198L55.6832 86.2015ZM63.0512 77.8004C64.3122 77.8004 65.2363 78.2122 65.8233 79.0356C66.4103 79.8591 66.6985 81.0105 66.6879 82.4898H60.9954C61.0501 83.2956 61.2854 83.9082 61.7013 84.3276C62.1171 84.7469 62.7071 84.9563 63.4711 84.9558C64.3865 84.9567 65.2872 84.7264 66.0897 84.2861V85.8866C65.2492 86.2601 64.2864 86.4468 63.2011 86.4468C61.9836 86.4468 61.0272 86.0739 60.332 85.3281C59.6367 84.5823 59.2894 83.5235 59.29 82.1519C59.29 80.7473 59.6185 79.6724 60.2755 78.9271C60.9325 78.1819 61.8577 77.8063 63.0512 77.8004ZM63.0026 79.2121C62.4315 79.2121 61.9845 79.3647 61.6616 79.67C61.3386 79.9753 61.1284 80.4923 61.0307 81.2211H64.9586C64.8828 80.524 64.6887 80.0153 64.3763 79.6947C64.064 79.3741 63.6061 79.2133 63.0026 79.2121ZM46.7907 12.0227C44.9185 11.5598 43.4774 11.328 42.4675 11.3274C34.9337 11.3274 28.8256 17.4152 28.8256 24.9225C28.8256 32.4299 34.9363 38.5185 42.4675 38.5185C49.9987 38.5185 56.1102 32.4308 56.1102 24.9225C56.1108 23.8257 55.9786 22.7329 55.7167 21.6678L66.5626 18.7466C67.4412 22.0866 67.6074 25.5742 67.0503 28.9827C66.4932 32.3911 65.2253 35.6443 63.3291 38.5309L45.3693 71.8274H28.7312L40.5538 50.035C40.6182 49.915 40.4285 49.6503 40.2697 49.6362C27.6363 48.4892 17.7406 37.9018 17.7406 25.0125C17.7406 11.3557 28.8485 0.28566 42.5522 0.28566C45.0607 0.282901 47.5552 0.659786 49.951 1.40351L46.7907 12.0227Z" fill="#006E53"/>
<path d="M42.3851 32.3996C46.5148 32.3996 49.8625 29.0519 49.8625 24.9222C49.8625 20.7926 46.5148 17.4449 42.3851 17.4449C38.2555 17.4449 34.9078 20.7926 34.9078 24.9222C34.9078 29.0519 38.2555 32.3996 42.3851 32.3996Z" fill="#D6E806"/>
<path d="M55.3012 19.8245C54.0057 16.5817 51.509 13.9639 48.3311 12.5166M60.0602 17.7847C58.2307 13.2872 54.7714 9.64579 50.3736 7.58812M64.6489 16.2557C62.3186 10.3265 57.736 5.5609 51.9026 3.00024" stroke="#D6E806" stroke-width="1.69945" stroke-linecap="round"/>
</g>
<defs>
<clipPath id="clip0_95_1286">
<rect width="85.1113" height="85.1113" fill="white" transform="translate(0 0.494263)"/>
</clipPath>
</defs>
</svg>
