<svg width="86" height="86" viewBox="0 0 86 86" fill="none" xmlns="http://www.w3.org/2000/svg">
<g clip-path="url(#clip0_95_1310)">
<path d="M43.0987 79.4057C63.1294 79.4057 79.3675 63.1676 79.3675 43.1369C79.3675 23.1062 63.1294 6.8681 43.0987 6.8681C23.068 6.8681 6.82996 23.1062 6.82996 43.1369C6.82996 63.1676 23.068 79.4057 43.0987 79.4057Z" fill="#50B651"/>
<path opacity="0.663" fill-rule="evenodd" clip-rule="evenodd" d="M79.2567 43.0346C79.2567 63.1283 62.9679 79.4172 42.8787 79.4172C22.7896 79.4172 6.49622 63.1283 6.49622 43.0346C6.49622 34.1459 6.74536 32.8244 10.2441 27.764C10.2441 27.764 10.0636 33.4798 14.2548 36.8811C16.8608 38.9942 19.5806 37.4687 24.5588 35.1759C29.9442 32.6935 34.3222 31.0922 37.738 31.5146C42.8833 32.1519 58.7424 41.6761 67.0191 39.7796C73.6312 38.2676 72.9335 22.6783 72.9335 22.6783C80.1549 29.73 79.2567 34.4962 79.2567 43.0346Z" fill="url(#paint0_linear_95_1310)"/>
<path opacity="0.586" fill-rule="evenodd" clip-rule="evenodd" d="M58.4904 69.7584C71.6484 57.3814 73.8356 43.2021 65.0519 27.2205C65.0965 27.253 65.6399 25.3778 66.6822 21.595C71.3569 27.256 73.8425 34.2433 74.1392 42.557C74.1368 53.3254 68.9205 62.3925 58.4904 69.7584Z" fill="url(#paint1_linear_95_1310)"/>
<path opacity="0.744" fill-rule="evenodd" clip-rule="evenodd" d="M52.2493 21.6698C45.8981 18.1548 38.6117 11.0841 39.5802 9.59918C40.5488 8.11427 53.1204 8.36973 59.4726 11.8848C65.8248 15.3998 71.2309 25.944 70.2632 27.4289C69.2956 28.9138 58.6006 25.1849 52.2493 21.6698Z" fill="url(#paint2_radial_95_1310)"/>
<path fill-rule="evenodd" clip-rule="evenodd" d="M57.7819 52.0688C52.513 52.0688 48.2415 47.6755 48.2415 42.2567C48.2415 36.8379 52.513 32.4454 57.7819 32.4454C63.0509 32.4454 67.3233 36.8379 67.3233 42.2567C67.3233 47.6755 63.0518 52.0688 57.7819 52.0688ZM57.8496 48.9564C61.1381 48.9564 63.8073 45.9568 63.8073 42.2567C63.8073 38.5566 61.1381 35.5597 57.8496 35.5597C54.5612 35.5597 51.892 38.5593 51.892 42.2585C51.892 45.9577 54.5612 48.9564 57.8496 48.9564Z" fill="white"/>
<path fill-rule="evenodd" clip-rule="evenodd" d="M38.0971 24.5448H44.9719V51.9592H41.1978V27.5516H38.0971V24.5448Z" fill="white"/>
<path fill-rule="evenodd" clip-rule="evenodd" d="M32.9734 32.7244H36.5417V55.6182C36.5417 57.7043 34.3473 59.877 32.2088 60.8122C31.1978 61.2539 29.3323 61.5163 26.6122 61.5993V59.3219C29.2727 59.0252 31.0685 58.4333 31.9994 57.5463C32.5366 56.7998 32.8724 55.9274 32.9743 55.0134V48.2875C32.0205 50.3113 30.8193 51.653 29.3708 52.3126C27.8651 53.125 24.8005 52.9914 23.5494 52.3126C22.2983 51.6338 20.4632 49.8464 19.6219 47.1844C19.389 46.4497 18.8095 44.4502 18.8699 42.3316C18.9241 40.3141 19.5921 38.1793 20.1472 37.3019C21.1005 35.8035 22.6034 33.9268 24.88 33.1424C25.9921 32.759 28.0532 32.6212 31.0633 32.7289V34.9937C28.8265 34.8427 27.431 34.9182 26.8767 35.2203C26.0453 35.6717 24.1687 36.2286 23.5494 40.3187C22.9302 44.4087 23.5675 47.7558 25.5308 48.8038C26.2033 49.1649 27.393 49.5919 28.4925 49.2155C30.6048 48.4933 32.5925 45.918 32.7441 44.1731C32.897 42.4026 32.9734 38.5864 32.9734 32.7244Z" fill="white"/>
<path fill-rule="evenodd" clip-rule="evenodd" d="M78.1165 50.3166C74.7468 66.5423 60.3689 78.7339 43.1449 78.7339C23.4186 78.7339 7.4267 62.742 7.4267 43.0157C7.4267 30.7609 13.5983 19.9477 23.0024 13.5161C15.3613 19.8529 10.4958 29.4259 10.4958 40.1307C10.4958 59.2251 25.975 74.7034 45.0685 74.7034C60.618 74.7034 73.7683 64.439 78.1165 50.3166Z" fill="url(#paint3_radial_95_1310)"/>
<path fill-rule="evenodd" clip-rule="evenodd" d="M43.1447 0.716064C19.7833 0.716064 0.844177 19.6543 0.844177 43.0157C0.844177 66.377 19.7833 85.3162 43.1447 85.3162C66.506 85.3162 85.4452 66.377 85.4452 43.0157C85.4452 19.6543 66.506 0.716064 43.1447 0.716064ZM43.1447 78.7347C23.4184 78.7347 7.42652 62.7428 7.42652 43.0166C7.42652 30.7618 13.5981 19.9486 23.0023 13.517C28.9331 9.45497 35.9561 7.28645 43.1447 7.29751C62.8709 7.29751 78.8628 23.2885 78.8628 43.0157C78.8641 45.4684 78.614 47.9148 78.1163 50.3165C74.7466 66.5422 60.3687 78.7338 43.1447 78.7338V78.7347Z" fill="white"/>
</g>
<defs>
<linearGradient id="paint0_linear_95_1310" x1="41.4733" y1="27.6466" x2="46.1365" y2="69.7594" gradientUnits="userSpaceOnUse">
<stop stop-color="#123214"/>
<stop offset="0.46" stop-color="#3E7C37"/>
<stop offset="0.91" stop-color="#5FBB46"/>
</linearGradient>
<linearGradient id="paint1_linear_95_1310" x1="68.413" y1="24.909" x2="68.413" y2="58.963" gradientUnits="userSpaceOnUse">
<stop stop-color="white" stop-opacity="0"/>
<stop offset="0.64" stop-color="white" stop-opacity="0.43"/>
<stop offset="1" stop-color="white" stop-opacity="0.42"/>
</linearGradient>
<radialGradient id="paint2_radial_95_1310" cx="0" cy="0" r="1" gradientUnits="userSpaceOnUse" gradientTransform="translate(55.6947 18.7526) rotate(26.7606) scale(17.9221 7.46424)">
<stop offset="0.13" stop-color="white"/>
<stop offset="0.29" stop-color="white" stop-opacity="0.69"/>
<stop offset="0.45" stop-color="white" stop-opacity="0.4"/>
<stop offset="0.59" stop-color="white" stop-opacity="0.18"/>
<stop offset="0.69" stop-color="white" stop-opacity="0.05"/>
<stop offset="0.74" stop-color="white" stop-opacity="0"/>
</radialGradient>
<radialGradient id="paint3_radial_95_1310" cx="0" cy="0" r="1" gradientUnits="userSpaceOnUse" gradientTransform="translate(49.2697 34.7861) rotate(39.84) scale(40.163 43.7776)">
<stop offset="0.86" stop-opacity="0"/>
<stop offset="0.98" stop-opacity="0.47"/>
<stop offset="1"/>
</radialGradient>
<clipPath id="clip0_95_1310">
<rect width="85.1113" height="85.1113" fill="white" transform="translate(0.333801 0.494263)"/>
</clipPath>
</defs>
</svg>
