<svg width="86" height="86" viewBox="0 0 86 86" fill="none" xmlns="http://www.w3.org/2000/svg">
<rect width="85.1113" height="85.1113" transform="translate(0.222534 0.494263)" fill="#F4DC00"/>
<path d="M42.7413 23.4788C20.3059 23.4788 2.11804 32.5727 2.11804 43.7903C2.11804 55.008 20.3059 64.1018 42.7413 64.1018C65.1767 64.1018 83.3646 55.0079 83.3646 43.7903C83.3646 32.5726 65.1767 23.4788 42.7413 23.4788ZM42.7413 60.8952C22.0767 60.8952 5.32482 53.2372 5.32482 43.7903C5.32482 34.3435 22.0769 26.6854 42.7413 26.6854C63.4059 26.6854 80.1578 34.3435 80.1578 43.7903C80.1578 53.2372 63.4057 60.8952 42.7413 60.8952ZM37.6182 40.2269V37.0196H49.0785V40.2269H44.9527V50.561H41.7448V40.2269H37.6182V40.2269ZM62.9119 37.0196V50.5611H59.7053L53.8891 42.5V50.5611H50.6823V37.0196H53.8889L59.7051 45.0808V37.0196H62.9119V37.0196ZM22.4752 50.5611V37.0196H25.682L29.2447 42.5L32.8075 37.0196H36.013V50.5611H32.8075V42.9017L30.3752 46.6404H28.1143L25.682 42.9017V50.5611H22.4752V50.5611Z" fill="black"/>
</svg>
